# xmcd
#
# Track frame offsets:
#	150
#	48034
#	89453
#	137870
#
# Disc length: 2246 seconds
#
# Revision: 0
# Processed by: cddbd v1.5.2PL0 Copyright (c) Steve Scherf et al.
# Submitted via: audiograbber 1.83.01
#
DISCID=2d08c404
DTITLE=Grateful Dead - 93-02-22 Oakland Coliseum Arena, Oakland CA
DYEAR=1900
DGENRE=
TTITLE0=Days Between
TTITLE1=Throwing Stones
TTITLE2=Not Fade Away
TTITLE3=Knocking On Heaven's Door
EXTD=
EXTT0=
EXTT1=
EXTT2=
EXTT3=
PLAYORDER=
